<?xml version="1.0" encoding="UTF-8"?>
<svg version="1.1" xmlns="http://www.w3.org/2000/svg" width="225" height="198">
<path d="M0 0 C74.25 0 148.5 0 225 0 C225 65.34 225 130.68 225 198 C150.75 198 76.5 198 0 198 C0 132.66 0 67.32 0 0 Z " fill="#FEFEFE" transform="translate(0,0)"/>
<path d="M0 0 C-2.78569679 2.89481394 -5.69539574 5.36256176 -8.875 7.8125 C-19.89666848 16.7565545 -29.34084099 27.79837819 -38 39 C-38.54237305 39.69689941 -39.08474609 40.39379883 -39.64355469 41.11181641 C-50.96277721 55.71854015 -61.11817116 70.79146397 -70 87 C-66.37 85.68 -62.74 84.36 -59 83 C-59 83.99 -59 84.98 -59 86 C-68.41002278 90.59225513 -68.41002278 90.59225513 -73 90 C-73.4021875 91.28390625 -73.4021875 91.28390625 -73.8125 92.59375 C-75.402778 97.15533689 -77.48751827 101.42378836 -79.5625 105.78125 C-81.66343537 110.48551833 -83.2848431 114.61791798 -83.1875 119.8125 C-83.18105469 120.58207031 -83.17460938 121.35164063 -83.16796875 122.14453125 C-83.1983129 124.01517911 -83.1983129 124.01517911 -82 125 C-75.12532477 125.20653531 -71.27231062 123.19632886 -66 119 C-65.34 119 -64.68 119 -64 119 C-65.87679198 123.97242014 -69.58570783 125.39367655 -74.109375 127.7265625 C-78.02291312 129.4506347 -80.71430004 130.07389138 -85 130 C-87.92562086 128.79159138 -89.43878318 127.90948967 -91.1015625 125.21484375 C-94.7993806 116.09891825 -90.89451248 106.77911959 -87.41015625 98.2734375 C-86.64550609 96.49843242 -85.86433014 94.72866027 -85 93 C-100.84 92.67 -116.68 92.34 -133 92 C-140.67972601 104.79952709 -140.67972601 104.79952709 -147.9375 117.8125 C-148.86005209 119.52908313 -149.78568308 121.24401623 -150.71484375 122.95703125 C-151.30446899 124.05494995 -151.30446899 124.05494995 -151.90600586 125.17504883 C-153 127 -153 127 -155 129 C-157.625 128.625 -157.625 128.625 -160 128 C-159.49490819 122.19144416 -157.10543096 117.84258277 -154.375 112.8125 C-153.70428467 111.55699341 -153.70428467 111.55699341 -153.02001953 110.27612305 C-149.62682719 103.99088116 -146.01280252 97.91290438 -142 92 C-155.18600393 91.26533379 -155.18600393 91.26533379 -166.87890625 96.53515625 C-168.29730567 97.98089831 -169.65443325 99.48623741 -171 101 C-171.66 101 -172.32 101 -173 101 C-169.99015292 94.29148512 -164.73376403 89.331724 -157.9375 86.5625 C-153.22878252 84.95814474 -149.49033729 85.14525607 -144.5625 85.4375 C-140.85788573 85.25432533 -138.19041063 85.11112267 -135.40185547 82.50830078 C-131.8866446 78.02929716 -129.28012219 73.00274232 -126.62451172 67.984375 C-124.87884402 64.77742551 -123.01030799 61.67259357 -121.09765625 58.5625 C-120.42798828 57.47324219 -119.75832031 56.38398437 -119.06835938 55.26171875 C-118.40642578 54.18535156 -117.74449219 53.10898438 -117.0625 52 C-105.95056199 34.29153445 -105.95056199 34.29153445 -104 14 C-106.52570633 10.58688333 -107.99913304 9.33362232 -112 8 C-131.0855723 6.06944915 -149.43388394 10.29842619 -164.63720703 22.29150391 C-168.2844178 25.34388115 -171.66006985 28.6163153 -175 32 C-175.75152344 32.7528125 -176.50304687 33.505625 -177.27734375 34.28125 C-187.03601019 44.62056646 -194 57.56108638 -194 72 C-193.54993095 76.0857831 -192.65757202 79.1985841 -190 82.4375 C-185.44293648 85.99770588 -180.58273024 85.55072879 -175 85 C-172.04301944 84.04245428 -169.5916046 82.69999751 -167 81 C-166.13375 80.46375 -165.2675 79.9275 -164.375 79.375 C-159.18963655 74.18963655 -155.18822394 67.2613685 -154 60 C-154.15222548 55.53979337 -154.86188398 51.30927689 -156 47 C-153 48 -153 48 -151.84765625 49.7265625 C-149.3744797 56.35969038 -150.27452037 63.13575337 -153.15234375 69.48925781 C-157.77432347 78.74809488 -163.21343589 85.21030922 -173 89 C-179.37866701 90.9136001 -185.98772142 90.66881697 -192.11328125 88.10546875 C-197.71058902 84.82588676 -201.20284956 79.09034317 -203 73 C-204.24623824 58.85618503 -200.58578684 46.73714467 -191.375 35.74609375 C-188.6991497 32.70885798 -185.87868765 29.84511695 -183 27 C-182.34257812 26.33226563 -181.68515625 25.66453125 -181.0078125 24.9765625 C-172.26914099 16.68795133 -160.26731839 10.94505578 -149 7 C-147.63488281 6.52046875 -147.63488281 6.52046875 -146.2421875 6.03125 C-138.66600967 3.84931079 -131.15748491 3.66151382 -123.3125 3.5625 C-122.25522705 3.54018311 -121.1979541 3.51786621 -120.10864258 3.49487305 C-112.47199703 3.51698054 -104.83565114 4.42724021 -99.02661133 9.83813477 C-94.54150952 14.88137645 -93.62478804 18.27587435 -93.73828125 25.015625 C-94.61651113 35.03006723 -101.07443819 42.92005291 -106.6015625 50.9453125 C-108.98320005 54.44459001 -111.27130373 58.00361055 -113.5625 61.5625 C-114.0167334 62.26632813 -114.4709668 62.97015625 -114.93896484 63.6953125 C-116.29403322 65.79598338 -117.6473176 67.89779206 -119 70 C-119.44891602 70.69738281 -119.89783203 71.39476563 -120.36035156 72.11328125 C-122.9094042 76.07391607 -125.45587856 80.03619598 -128 84 C-124.56974801 85.71512599 -120.65430531 85.64775274 -116.875 86 C-115.50178589 86.13027588 -115.50178589 86.13027588 -114.10083008 86.26318359 C-103.08798566 87.25095744 -92.04853856 87.64513115 -81 88 C-80.73227783 87.28102539 -80.46455566 86.56205078 -80.1887207 85.82128906 C-71.3278658 64.79109 -54.76464283 46.15443277 -40 29 C-39.55398437 28.44103027 -39.10796875 27.88206055 -38.6484375 27.30615234 C-37.47298108 25.83726145 -36.24048422 24.41440346 -35 23 C-34.34 23 -33.68 23 -33 23 C-32.67 22.01 -32.34 21.02 -32 20 C-31.34 20 -30.68 20 -30 20 C-29.67 19.01 -29.34 18.02 -29 17 C-21.63360358 9.98697315 -10.64996677 -0.28026228 0 0 Z " fill="#0A080A" transform="translate(211,33)"/>
<path d="M0 0 C1.2933507 4.42253291 1.2933507 4.42253291 -0.00048828 6.96948242 C-0.51853027 7.59185791 -1.03657227 8.2142334 -1.5703125 8.85546875 C-2.13532471 9.55559082 -2.70033691 10.25571289 -3.2824707 10.97705078 C-3.89050537 11.70649902 -4.49854004 12.43594727 -5.125 13.1875 C-14.76375223 24.71478273 -14.76375223 24.71478273 -17 39 C-12.02362638 37.78625034 -9.15693228 35.67026507 -5.515625 32.2421875 C-4 31 -4 31 -2 31 C-1.61714844 30.12601563 -1.61714844 30.12601563 -1.2265625 29.234375 C0.11741087 26.78611777 1.61810296 25.18256752 3.625 23.25 C4.25664062 22.63640625 4.88828125 22.0228125 5.5390625 21.390625 C6.02117187 20.93171875 6.50328125 20.4728125 7 20 C7.495 20.99 7.495 20.99 8 22 C-9.17147555 42.26344542 -9.17147555 42.26344542 -17.6875 43.5625 C-21 43 -21 43 -23 41.125 C-25.04572218 34.73211818 -23.70077997 28.93546208 -20.8125 23 C-18.04546771 17.90283525 -15.05274112 12.93054407 -12 8 C-22.43462223 16.7602989 -31.46195278 26.21124286 -39.6875 37.03125 C-41.38022125 39.20433809 -42.98357027 41.14276209 -45 43 C-46.32 42.34 -47.64 41.68 -49 41 C-49.51137226 34.09647445 -47.86964374 29.25172386 -45 23 C-45.93757324 23.93757324 -46.8581291 24.89207706 -47.77734375 25.84765625 C-48.49019531 26.57855469 -49.20304688 27.30945313 -49.9375 28.0625 C-50.64777344 28.79597656 -51.35804688 29.52945313 -52.08984375 30.28515625 C-54 32 -54 32 -56 32 C-54.42414494 28.26496231 -52.07781431 25.74720569 -49.3125 22.8125 C-45.51529609 18.70933434 -41.98225003 14.53360752 -38.60546875 10.08203125 C-36.18903987 6.94831691 -33.60089148 3.98150974 -31 1 C-29.0625 1.3125 -29.0625 1.3125 -27 2 C-26.67 2.99 -26.34 3.98 -26 5 C-27.5037811 7.54873135 -29.04014725 9.90889552 -30.75 12.3125 C-33.86211212 16.75649062 -36.70165846 21.05856568 -39 26 C-38.67 26.33 -38.34 26.66 -38 27 C-37.5373877 26.55720703 -37.07477539 26.11441406 -36.59814453 25.65820312 C-9.06925753 -0.6327389 -9.06925753 -0.6327389 0 0 Z " fill="#AE2C2D" transform="translate(207,118)"/>
<path d="M0 0 C3 1 3 1 4.15234375 2.7265625 C6.6255203 9.35969038 5.72547963 16.13575337 2.84765625 22.48925781 C-1.77432347 31.74809488 -7.21343589 38.21030922 -17 42 C-23.39125286 43.91737586 -29.95014069 43.63714628 -36.1015625 41.1328125 C-39.47915874 39.11737441 -41.71966131 36.15274099 -44 33 C-41.35261084 31.5393715 -40.10551666 31 -37 31 C-35.9935725 32.66279327 -34.99414593 34.32983484 -34 36 C-29.38498856 38.97479766 -24.28766031 38.6005376 -19 38 C-16.04641356 37.03536066 -13.59102722 35.69961878 -11 34 C-10.13375 33.46375 -9.2675 32.9275 -8.375 32.375 C-3.18963655 27.18963655 0.81177606 20.2613685 2 13 C1.84777452 8.53979337 1.13811602 4.30927689 0 0 Z " fill="#111014" transform="translate(55,80)"/>
<path d="M0 0 C1.9375 0.3125 1.9375 0.3125 4 1 C4.33 1.99 4.66 2.98 5 4 C3.453125 6.91796875 3.453125 6.91796875 1.25 10.1875 C0.17492187 11.81751953 0.17492187 11.81751953 -0.921875 13.48046875 C-1.60765625 14.31191406 -2.2934375 15.14335937 -3 16 C-3.99 16 -4.98 16 -6 16 C-6 16.66 -6 17.32 -6 18 C-6.66 18 -7.32 18 -8 18 C-8.33 18.99 -8.66 19.98 -9 21 C-10.65 20.67 -12.3 20.34 -14 20 C-13.38992097 16.49006481 -12.03156955 14.44541646 -9.8125 11.6875 C-9.18859375 10.90890625 -8.5646875 10.1303125 -7.921875 9.328125 C-5.32315758 6.1800852 -2.68348073 3.07618523 0 0 Z " fill="#AE2022" transform="translate(176,119)"/>
<path d="M0 0 C0.99 0.33 1.98 0.66 3 1 C4.125 4.3125 4.125 4.3125 5 8 C5.36544922 8.98806641 5.36544922 8.98806641 5.73828125 9.99609375 C6 12 6 12 4.78515625 13.921875 C4.21667969 14.52515625 3.64820313 15.1284375 3.0625 15.75 C2.49660156 16.36359375 1.93070313 16.9771875 1.34765625 17.609375 C0.90292969 18.06828125 0.45820313 18.5271875 0 19 C-1.32 18.34 -2.64 17.68 -4 17 C-4.48736475 10.29873464 -3.07708804 5.93438408 0 0 Z " fill="#AE1F21" transform="translate(162,142)"/>
<path d="M0 0 C0.66 0 1.32 0 2 0 C0.23104283 4.98524294 -2.3979635 9.4121988 -5 14 C0.445 12.02 0.445 12.02 6 10 C6 10.99 6 11.98 6 13 C-3.41002278 17.59225513 -3.41002278 17.59225513 -8 17 C-8.66 14.03 -9.32 11.06 -10 8 C-9.195625 7.71125 -8.39125 7.4225 -7.5625 7.125 C-4.8673532 6.26737432 -4.8673532 6.26737432 -4 4 C-3.01 4 -2.02 4 -1 4 C-0.67 2.68 -0.34 1.36 0 0 Z " fill="#020209" transform="translate(146,106)"/>
<path d="M0 0 C3 1 3 1 4.15234375 2.7265625 C6.37654443 8.69193023 5.980535 15.04865083 3.50390625 20.86328125 C-1.07982579 30.5399129 -1.07982579 30.5399129 -4 32 C-4.64453125 30.23828125 -4.64453125 30.23828125 -5 28 C-4.07421875 26.10546875 -4.07421875 26.10546875 -2.6875 24.1875 C1.79152737 17.42529155 2.43150656 11.82267725 1 4 C0.68021677 2.66335211 0.35094862 1.32880546 0 0 Z " fill="#1E1A1D" transform="translate(55,80)"/>
<path d="M0 0 C0.99 0 1.98 0 3 0 C1.68166467 3.56179746 0.10534642 6.61484543 -1.96875 9.79296875 C-2.53980469 10.67017578 -3.11085938 11.54738281 -3.69921875 12.45117188 C-4.59060547 13.8056543 -4.59060547 13.8056543 -5.5 15.1875 C-6.09425781 16.10208984 -6.68851562 17.01667969 -7.30078125 17.95898438 C-11.72473014 24.72473014 -11.72473014 24.72473014 -14 27 C-14.1875 24.6875 -14.1875 24.6875 -14 22 C-13.525625 21.566875 -13.05125 21.13375 -12.5625 20.6875 C-9.99085326 17.91012153 -10.3030844 14.69762964 -10 11 C-9.01 10.67 -8.02 10.34 -7 10 C-6.26676204 7.98491642 -6.26676204 7.98491642 -6 6 C-4.68 6 -3.36 6 -2 6 C-1.34 4.02 -0.68 2.04 0 0 Z " fill="#060A19" transform="translate(104,78)"/>
<path d="M0 0 C3.94463583 3.77312992 3.94463583 3.77312992 4.09765625 7.1640625 C4.08605469 7.97617187 4.07445313 8.78828125 4.0625 9.625 C4.05347656 10.44226562 4.04445313 11.25953125 4.03515625 12.1015625 C4.02355469 12.72804688 4.01195313 13.35453125 4 14 C3.34 14 2.68 14 2 14 C1.67 15.98 1.34 17.96 1 20 C0.01 20 -0.98 20 -2 20 C-2.19551338 18.39679026 -2.38111983 16.79237014 -2.5625 15.1875 C-2.71912109 13.84751953 -2.71912109 13.84751953 -2.87890625 12.48046875 C-3 10 -3 10 -2 7 C-1.34 6.67 -0.68 6.34 0 6 C0 4.02 0 2.04 0 0 Z " fill="#040610" transform="translate(113,45)"/>
<path d="M0 0 C0 1.65 0 3.3 0 5 C-1.32 5 -2.64 5 -4 5 C-4 6.32 -4 7.64 -4 9 C-4.99 9 -5.98 9 -7 9 C-7 10.32 -7 11.64 -7 13 C-8.98 13.99 -8.98 13.99 -11 15 C-11.66 14.34 -12.32 13.68 -13 13 C-11.68 10.69 -10.36 8.38 -9 6 C-8.34 6 -7.68 6 -7 6 C-7.33 5.01 -7.66 4.02 -8 3 C-5.45189726 -0.82215411 -4.39145359 -1.46381786 0 0 Z " fill="#B61617" transform="translate(205,121)"/>
<path d="M0 0 C2.1385485 2.1385485 2.42655063 3.13275314 3 6 C2.34 6 1.68 6 1 6 C1 9.96 1 13.92 1 18 C0.34 18.33 -0.32 18.66 -1 19 C-2.5078125 17.80078125 -2.5078125 17.80078125 -4 16 C-4.45884454 10.20459393 -2.99536965 4.94887159 0 0 Z " fill="#B73429" transform="translate(187,140)"/>
<path d="M0 0 C0.33 0 0.66 0 1 0 C1 1.98 1 3.96 1 6 C1.99 6.33 2.98 6.66 4 7 C2.25 12.75 2.25 12.75 0 15 C-2.625 14.625 -2.625 14.625 -5 14 C-4.46515599 8.65155992 -2.53309233 4.64203897 0 0 Z " fill="#171011" transform="translate(56,147)"/>
<path d="M0 0 C0.6875 2.3125 0.6875 2.3125 1 5 C-0.4375 6.8125 -0.4375 6.8125 -2 8 C-2.33 6.35 -2.66 4.7 -3 3 C-4.65 3.33 -6.3 3.66 -8 4 C-8.33 5.65 -8.66 7.3 -9 9 C-9.99 8.67 -10.98 8.34 -12 8 C-15.18288354 9.87178116 -15.18288354 9.87178116 -18 12 C-17.64154938 9.1512609 -17.12645301 8.11952408 -15.00390625 6.11328125 C-14.19824219 5.51902344 -13.39257812 4.92476563 -12.5625 4.3125 C-11.75941406 3.71050781 -10.95632812 3.10851562 -10.12890625 2.48828125 C-6.53987444 -0.02074833 -4.36160886 -0.09481758 0 0 Z " fill="#A62D2C" transform="translate(207,118)"/>
<path d="M0 0 C0.33 0.66 0.66 1.32 1 2 C-13.50559701 19.11753731 -13.50559701 19.11753731 -21 22 C-21.33 21.01 -21.66 20.02 -22 19 C-20.58531689 18.03874097 -19.1681636 17.08111675 -17.75 16.125 C-16.56664062 15.32449219 -16.56664062 15.32449219 -15.359375 14.5078125 C-13 13 -13 13 -10.828125 12.0546875 C-8.49761228 10.71016093 -8.11644369 9.41151837 -7 7 C-5.2734375 5.078125 -5.2734375 5.078125 -3.375 3.25 C-2.74335938 2.63640625 -2.11171875 2.0228125 -1.4609375 1.390625 C-0.73777344 0.70226562 -0.73777344 0.70226562 0 0 Z " fill="#A23A3B" transform="translate(214,138)"/>
<path d="M0 0 C0.625 1.8125 0.625 1.8125 1 4 C0.01 5.485 0.01 5.485 -1 7 C-1.66 7 -2.32 7 -3 7 C-2.79375 7.86625 -2.5875 8.7325 -2.375 9.625 C-3 13 -3 13 -5.2265625 14.734375 C-7.78068134 16.2452622 -10.34983601 17.66545313 -13 19 C-12.67 17.35 -12.34 15.7 -12 14 C-11.01 14 -10.02 14 -9 14 C-9 13.34 -9 12.68 -9 12 C-8.0409375 11.1028125 -8.0409375 11.1028125 -7.0625 10.1875 C-4.79745285 8.17520771 -4.79745285 8.17520771 -4.5 5.4375 C-4 3 -4 3 -1.9375 1.1875 C-1.298125 0.795625 -0.65875 0.40375 0 0 Z " fill="#050205" transform="translate(93,93)"/>
<path d="M0 0 C0.66 0.33 1.32 0.66 2 1 C-1.12941343 4.30823705 -4.07976834 6.7131982 -8 9 C-8.33 9.66 -8.66 10.32 -9 11 C-8.34 11.33 -7.68 11.66 -7 12 C-8.65 13.98 -10.3 15.96 -12 18 C-12.99 17.67 -13.98 17.34 -15 17 C-15.6875 14.9375 -15.6875 14.9375 -16 13 C-13.89746067 11.20639298 -11.79305667 9.41505881 -9.6875 7.625 C-8.79514648 6.86316406 -8.79514648 6.86316406 -7.88476562 6.0859375 C-7.01948242 5.35117187 -7.01948242 5.35117187 -6.13671875 4.6015625 C-5.60780029 4.15119629 -5.07888184 3.70083008 -4.53393555 3.23681641 C-3.08837533 2.07125727 -1.54505544 1.03003696 0 0 Z M-18 15 C-17.34 15.33 -16.68 15.66 -16 16 C-16.99 16 -17.98 16 -19 16 C-18.67 15.67 -18.34 15.34 -18 15 Z " fill="#170F0C" transform="translate(197,38)"/>
<path d="M0 0 C0.33 0 0.66 0 1 0 C1.66 1.98 2.32 3.96 3 6 C9.96808813 5.82619281 13.56493323 4.32586947 19 0 C19.66 0 20.32 0 21 0 C19.12451259 4.96896376 15.41581582 6.38156603 10.91015625 8.73828125 C7.14135527 10.37227147 4.08437689 10.84587257 0 11 C-0.33 10.34 -0.66 9.68 -1 9 C-0.01 8.67 0.98 8.34 2 8 C1.484375 7.608125 0.96875 7.21625 0.4375 6.8125 C-0.036875 6.214375 -0.51125 5.61625 -1 5 C-0.6875 2.3125 -0.6875 2.3125 0 0 Z " fill="#171719" transform="translate(126,152)"/>
<path d="M0 0 C0.99 0 1.98 0 3 0 C4.25541557 3.76624671 3.37061958 5.37188934 2 9 C1.34 9 0.68 9 0 9 C-0.33 9.99 -0.66 10.98 -1 12 C-2.65 11.67 -4.3 11.34 -6 11 C-5.39005934 7.93674247 -4.42271989 5.79949366 -2.625 3.25 C-2.20476562 2.63640625 -1.78453125 2.0228125 -1.3515625 1.390625 C-0.90554687 0.93171875 -0.45953125 0.4728125 0 0 Z " fill="#B41814" transform="translate(168,128)"/>
<path d="M0 0 C0.66 0 1.32 0 2 0 C2 1.32 2 2.64 2 4 C-4 8 -4 8 -7 8 C-7 8.99 -7 9.98 -7 11 C-6.34 11.33 -5.68 11.66 -5 12 C-4.3125 13.9375 -4.3125 13.9375 -4 16 C-4.33 16.66 -4.66 17.32 -5 18 C-6.32 17.67 -7.64 17.34 -9 17 C-8.67 15.68 -8.34 14.36 -8 13 C-8.66 13 -9.32 13 -10 13 C-9.1875 9.5625 -9.1875 9.5625 -8 6 C-7.01 5.67 -6.02 5.34 -5 5 C-4.154375 4.154375 -3.30875 3.30875 -2.4375 2.4375 C-1.633125 1.633125 -0.82875 0.82875 0 0 Z " fill="#050202" transform="translate(143,106)"/>
<path d="M0 0 C0.66 0.33 1.32 0.66 2 1 C-1.63 7.93 -5.26 14.86 -9 22 C-9.33 21.01 -9.66 20.02 -10 19 C-10.66 18.67 -11.32 18.34 -12 18 C-11 16 -11 16 -9.0625 14.75 C-6.38673017 12.47964984 -5.8895475 10.33580311 -5 7 C-5.66 7 -6.32 7 -7 7 C-6.67 6.01 -6.34 5.02 -6 4 C-4.34795544 3.29788106 -2.68076231 2.63028587 -1 2 C-0.67 1.34 -0.34 0.68 0 0 Z " fill="#060B16" transform="translate(69,135)"/>
<path d="M0 0 C0.33 1.32 0.66 2.64 1 4 C0.34 4 -0.32 4 -1 4 C-1 5.32 -1 6.64 -1 8 C-1.495 8.433125 -1.99 8.86625 -2.5 9.3125 C-4.86083267 11.96843676 -4.1926369 14.59674813 -4 18 C-4.66 18 -5.32 18 -6 18 C-6 17.34 -6 16.68 -6 16 C-7.98 16.33 -9.96 16.66 -12 17 C-8.19648587 11.17334006 -4.23982103 5.51778127 0 0 Z " fill="#120B07" transform="translate(159,76)"/>
<path d="M0 0 C0.99 0.33 1.98 0.66 3 1 C1.02 3.97 -0.96 6.94 -3 10 C-2.34 10.66 -1.68 11.32 -1 12 C-2.8125 12.625 -2.8125 12.625 -5 13 C-5.99 12.34 -6.98 11.68 -8 11 C-5.90323281 5.85338962 -4.65881689 3.10587793 0 0 Z " fill="#070914" transform="translate(86,107)"/>
<path d="M0 0 C0.66 1.32 1.32 2.64 2 4 C0.7934375 5.0828125 0.7934375 5.0828125 -0.4375 6.1875 C-3.10243134 9.11242464 -3.50364944 10.22773577 -4 14 C-4.99 15.485 -4.99 15.485 -6 17 C-6.66 17 -7.32 17 -8 17 C-8 17.66 -8 18.32 -8 19 C-8.99 18.67 -9.98 18.34 -11 18 C-7.37 12.06 -3.74 6.12 0 0 Z " fill="#20110B" transform="translate(92,88)"/>
<path d="M0 0 C2 3 2 3 1.9375 4.9375 C0.62230861 7.83092105 -1.48951237 9.11713428 -4 11 C-4.33 11.66 -4.66 12.32 -5 13 C-5.66 13 -6.32 13 -7 13 C-8 10 -8 10 -6.875 7.0625 C-4.92360435 3.87522044 -3.03577721 2.13324885 0 0 Z " fill="#080202" transform="translate(166,70)"/>
<path d="M0 0 C2.31 0.33 4.62 0.66 7 1 C6.01 1.66 5.02 2.32 4 3 C3.773125 3.680625 3.54625 4.36125 3.3125 5.0625 C2 7 2 7 0.09765625 7.48046875 C-1.92742463 7.72604095 -3.96431595 7.86866555 -6 8 C-5.1875 6.0625 -5.1875 6.0625 -4 4 C-3.01 3.67 -2.02 3.34 -1 3 C-0.67 2.01 -0.34 1.02 0 0 Z " fill="#060304" transform="translate(46,47)"/>
<path d="M0 0 C0.66 0.99 1.32 1.98 2 3 C0.625 5 0.625 5 -1 7 C-1.66 7 -2.32 7 -3 7 C-2.896875 7.70125 -2.79375 8.4025 -2.6875 9.125 C-3.14210034 13.30732311 -5.16466151 14.95201113 -8 18 C-8.99 17.67 -9.98 17.34 -11 17 C-5.555 8.585 -5.555 8.585 0 0 Z " fill="#1F0E09" transform="translate(146,94)"/>
<path d="M0 0 C0.99 0.33 1.98 0.66 3 1 C0.70694864 8.46978852 0.70694864 8.46978852 -2 10.5 C-4 11 -4 11 -7 11 C-6.35247261 7.50335208 -5.00382711 4.92867039 -3 2 C-2.01 1.34 -1.02 0.68 0 0 Z " fill="#060204" transform="translate(181,53)"/>
<path d="M0 0 C0.99 0.33 1.98 0.66 3 1 C4.125 4.375 4.125 4.375 5 8 C5.33 8.99 5.66 9.98 6 11 C3.69 11.33 1.38 11.66 -1 12 C-1.08159574 7.83861737 -0.98248524 4.0527516 0 0 Z " fill="#B31915" transform="translate(162,142)"/>
<path d="M0 0 C-1.62255228 1.48185125 -3.24811888 2.96040256 -4.875 4.4375 C-5.77992187 5.26121094 -6.68484375 6.08492187 -7.6171875 6.93359375 C-10 9 -10 9 -12 10 C-12.66 9.67 -13.32 9.34 -14 9 C-13.875 7.1875 -13.875 7.1875 -13 5 C-9.9375 3.25 -9.9375 3.25 -7 2 C-7 1.34 -7 0.68 -7 0 C-3.98968256 -0.93423645 -3.13349732 -1.04449911 0 0 Z " fill="#0D111E" transform="translate(47,55)"/>
<path d="M0 0 C1.32 0.33 2.64 0.66 4 1 C2.39852104 3.10626032 0.79395125 5.21003738 -0.8125 7.3125 C-1.26431641 7.90740234 -1.71613281 8.50230469 -2.18164062 9.11523438 C-4.31610234 11.90405661 -6.41080206 14.61724973 -9 17 C-8.67 14.36 -8.34 11.72 -8 9 C-6.35 8.67 -4.7 8.34 -3 8 C-3 6.68 -3 5.36 -3 4 C-2.01 4 -1.02 4 0 4 C0 2.68 0 1.36 0 0 Z " fill="#AB2A37" transform="translate(201,126)"/>
<path d="M0 0 C0.33 0.66 0.66 1.32 1 2 C-0.98 2.99 -0.98 2.99 -3 4 C-2.34 4.66 -1.68 5.32 -1 6 C-1.886875 6.391875 -2.77375 6.78375 -3.6875 7.1875 C-7.12099103 9.06620264 -9.29000698 11.2147294 -12 14 C-12.66 14 -13.32 14 -14 14 C-12.5466378 10.65876526 -10.70404484 8.43458035 -8.125 5.875 C-7.44695313 5.19179687 -6.76890625 4.50859375 -6.0703125 3.8046875 C-4.11264331 2.09819096 -2.3692591 1.03057459 0 0 Z " fill="#150D0D" transform="translate(52,120)"/>
<path d="M0 0 C0.66 0.33 1.32 0.66 2 1 C-2.79240755 7.33923651 -7.43728125 13.38179051 -14 18 C-12.3867348 14.12266375 -9.85050638 11.48273574 -7 8.4375 C-4.42555742 5.67970322 -2.09363537 3.14045306 0 0 Z " fill="#21150E" transform="translate(176,56)"/>
<path d="M0 0 C2 3 2 3 2 5 C2.66 5 3.32 5 4 5 C4.33 4.01 4.66 3.02 5 2 C7.53552912 3.26776456 7.84919575 4.46823065 9 7 C9.33 7.66 9.66 8.32 10 9 C7.75 9.75 7.75 9.75 5 10 C1.88445304 7.83642572 1.10638517 6.46100241 0.25 2.75 C0.1675 1.8425 0.085 0.935 0 0 Z " fill="#140B09" transform="translate(119,152)"/>
<path d="M0 0 C-0.54984772 3.87511727 -2.27555331 5.59576506 -5.0625 8.25 C-5.79597656 8.95640625 -6.52945313 9.6628125 -7.28515625 10.390625 C-7.85105469 10.92171875 -8.41695312 11.4528125 -9 12 C-9.73828125 10.265625 -9.73828125 10.265625 -10 8 C-8.41796875 5.859375 -8.41796875 5.859375 -6.1875 3.75 C-5.09501953 2.69039062 -5.09501953 2.69039062 -3.98046875 1.609375 C-2 0 -2 0 0 0 Z " fill="#A83D40" transform="translate(189,128)"/>
<path d="M0 0 C0.33 1.32 0.66 2.64 1 4 C0.34 4 -0.32 4 -1 4 C-0.16666667 6.16666667 -0.16666667 6.16666667 2 7 C1.67 7.99 1.34 8.98 1 10 C-0.15224028 9.07038578 -1.29659176 8.1309875 -2.4375 7.1875 C-3.39462891 6.40439453 -3.39462891 6.40439453 -4.37109375 5.60546875 C-6 4 -6 4 -7 1 C-4.50935112 0.31292445 -2.62113708 0 0 0 Z " fill="#1A1313" transform="translate(18,111)"/>
<path d="M0 0 C0.61875 0.28875 1.2375 0.5775 1.875 0.875 C2.205 1.865 2.535 2.855 2.875 3.875 C1.555 5.195 0.235 6.515 -1.125 7.875 C-1.125 7.215 -1.125 6.555 -1.125 5.875 C-1.785 5.875 -2.445 5.875 -3.125 5.875 C-3.125 5.215 -3.125 4.555 -3.125 3.875 C-3.785 3.545 -4.445 3.215 -5.125 2.875 C-2.69803371 -0.15870787 -2.69803371 -0.15870787 0 0 Z " fill="#AE2E38" transform="translate(178.125,119.125)"/>
<path d="M0 0 C0.99 0.33 1.98 0.66 3 1 C3 3.64 3 6.28 3 9 C2.01 9.495 2.01 9.495 1 10 C0.34 9.67 -0.32 9.34 -1 9 C-0.67 6.03 -0.34 3.06 0 0 Z " fill="#B71816" transform="translate(185,149)"/>
<path d="M0 0 C0.33 0.99 0.66 1.98 1 3 C-0.29296875 4.97265625 -0.29296875 4.97265625 -2.1875 7.0625 C-2.79980469 7.75472656 -3.41210938 8.44695312 -4.04296875 9.16015625 C-5.95147843 10.95438391 -7.60631797 11.9756527 -10 13 C-8.48446596 9.52224821 -6.4226544 7.0442016 -3.875 4.25 C-3.15054688 3.45078125 -2.42609375 2.6515625 -1.6796875 1.828125 C-0.84824219 0.92320312 -0.84824219 0.92320312 0 0 Z " fill="#9F3A36" transform="translate(161,137)"/>
<path d="M0 0 C0.66 0 1.32 0 2 0 C0.23570801 4.97209562 -2.3939166 9.43438061 -5 14 C-6.15941038 10.52176885 -5.70820884 8.54104422 -5 5 C-3.68 4.67 -2.36 4.34 -1 4 C-0.67 2.68 -0.34 1.36 0 0 Z " fill="#0A1525" transform="translate(146,106)"/>
<path d="M0 0 C0.99 0.33 1.98 0.66 3 1 C2.04258894 2.60471728 1.08403595 4.20875329 0.125 5.8125 C-0.40867187 6.70582031 -0.94234375 7.59914063 -1.4921875 8.51953125 C-2.61883092 10.37294724 -3.79686611 12.19529917 -5 14 C-5.34833144 9.12335991 -4.41685712 6.22949995 -2 2 C-1.34 2 -0.68 2 0 2 C0 1.34 0 0.68 0 0 Z " fill="#070F23" transform="translate(24,75)"/>
<path d="M0 0 C1.65 0 3.3 0 5 0 C5 1.32 5 2.64 5 4 C4.01 4 3.02 4 2 4 C2 4.66 2 5.32 2 6 C0.68 5.67 -0.64 5.34 -2 5 C-1.34 3.35 -0.68 1.7 0 0 Z " fill="#020305" transform="translate(22,71)"/>
<path d="M0 0 C0.66 0.33 1.32 0.66 2 1 C0.54540569 2.64913882 -0.91379257 4.29421782 -2.375 5.9375 C-3.18710938 6.85402344 -3.99921875 7.77054688 -4.8359375 8.71484375 C-7 11 -7 11 -9 12 C-8.67 10.35 -8.34 8.7 -8 7 C-7.01 7 -6.02 7 -5 7 C-4.731875 6.401875 -4.46375 5.80375 -4.1875 5.1875 C-3.01506533 3.02775192 -1.80630718 1.64209744 0 0 Z " fill="#060F20" transform="translate(190,49)"/>
<path d="M0 0 C0.33 0 0.66 0 1 0 C1.268125 0.969375 1.53625 1.93875 1.8125 2.9375 C2.204375 3.948125 2.59625 4.95875 3 6 C3.99 6.33 4.98 6.66 6 7 C6 7.66 6 8.32 6 9 C6.66 9.33 7.32 9.66 8 10 C5.36 10.33 2.72 10.66 0 11 C-0.33 10.34 -0.66 9.68 -1 9 C-0.01 8.67 0.98 8.34 2 8 C1.484375 7.608125 0.96875 7.21625 0.4375 6.8125 C-0.036875 6.214375 -0.51125 5.61625 -1 5 C-0.6875 2.3125 -0.6875 2.3125 0 0 Z " fill="#0C111B" transform="translate(126,152)"/>
<path d="M0 0 C0.99 0.66 1.98 1.32 3 2 C2.34 3.65 1.68 5.3 1 7 C0.01 7 -0.98 7 -2 7 C-2 7.99 -2 8.98 -2 10 C-2.66 9.67 -3.32 9.34 -4 9 C-3.52418802 7.68628013 -3.04424851 6.37405454 -2.5625 5.0625 C-2.29566406 4.33160156 -2.02882813 3.60070312 -1.75390625 2.84765625 C-1 1 -1 1 0 0 Z " fill="#130605" transform="translate(96,82)"/>
<path d="M0 0 C0.66 0.33 1.32 0.66 2 1 C1.21232408 2.93912584 0.4197133 4.87624766 -0.375 6.8125 C-0.81585938 7.89144531 -1.25671875 8.97039062 -1.7109375 10.08203125 C-3 13 -3 13 -5 16 C-4.24228029 4.24228029 -4.24228029 4.24228029 0 0 Z " fill="#061229" transform="translate(132,132)"/>
<path d="M0 0 C0.66 0.33 1.32 0.66 2 1 C-0.31 4.3 -2.62 7.6 -5 11 C-5.99 10.67 -6.98 10.34 -8 10 C-7.67 9.34 -7.34 8.68 -7 8 C-6.34 8 -5.68 8 -5 8 C-4.731875 7.236875 -4.46375 6.47375 -4.1875 5.6875 C-3.05575888 3.12619116 -2.08776599 1.80307062 0 0 Z " fill="#081021" transform="translate(155,93)"/>
<path d="M0 0 C2.475 0.495 2.475 0.495 5 1 C5 6.28 5 11.56 5 17 C4.34 17.33 3.68 17.66 3 18 C3.03480469 17.11957031 3.06960937 16.23914063 3.10546875 15.33203125 C3.13253906 14.17058594 3.15960938 13.00914063 3.1875 11.8125 C3.22230469 10.66394531 3.25710937 9.51539063 3.29296875 8.33203125 C2.97622579 4.72960801 2.08533398 2.90633161 0 0 Z " fill="#361E13" transform="translate(104,42)"/>
<path d="M0 0 C0.33 0.99 0.66 1.98 1 3 C-0.4317616 3.69937202 -1.87067032 4.38412718 -3.3125 5.0625 C-4.51326172 5.63677734 -4.51326172 5.63677734 -5.73828125 6.22265625 C-8 7 -8 7 -11 6 C-8.7991151 3.52140092 -6.93627031 2.38789634 -3.8125 1.3125 C-3.09707031 1.06113281 -2.38164062 0.80976562 -1.64453125 0.55078125 C-1.10183594 0.36902344 -0.55914062 0.18726562 0 0 Z " fill="#11151C" transform="translate(151,116)"/>
<path d="M0 0 C0.66 0 1.32 0 2 0 C0.68938409 4.23429756 -0.94356259 8.07407404 -3 12 C-3.33 11.01 -3.66 10.02 -4 9 C-4.66 8.67 -5.32 8.34 -6 8 C-5 6 -5 6 -3 4.5625 C-0.71843864 3.07681896 -0.71843864 3.07681896 0 0 Z " fill="#071224" transform="translate(63,145)"/>
<path d="M0 0 C0.33 0.66 0.66 1.32 1 2 C-1.31 4.64 -3.62 7.28 -6 10 C-6.99 9.67 -7.98 9.34 -9 9 C-6.03 6.03 -3.06 3.06 0 0 Z " fill="#A44C4B" transform="translate(214,138)"/>
<path d="M0 0 C0.33 1.32 0.66 2.64 1 4 C0.34 4 -0.32 4 -1 4 C-1 5.32 -1 6.64 -1 8 C-2.32 8.33 -3.64 8.66 -5 9 C-5 9.66 -5 10.32 -5 11 C-5.66 11 -6.32 11 -7 11 C-5.22054913 6.95579349 -2.60470327 3.53921513 0 0 Z " fill="#26150F" transform="translate(159,76)"/>
<path d="M0 0 C0.33 0 0.66 0 1 0 C2.20675603 7.19161361 2.20811455 12.68782817 -2 19 C-2.042721 17.33388095 -2.04063832 15.66617115 -2 14 C-1.67 13.67 -1.34 13.34 -1 13 C-0.76518307 10.81707226 -0.58636677 8.62796826 -0.4375 6.4375 C-0.35371094 5.23996094 -0.26992187 4.04242188 -0.18359375 2.80859375 C-0.12300781 1.88175781 -0.06242187 0.95492187 0 0 Z " fill="#0F0101" transform="translate(109,46)"/>
<path d="M0 0 C1.53690745 2.41040161 2.09752136 3.50082285 1.5390625 6.359375 C1.23742187 7.14828125 0.93578125 7.9371875 0.625 8.75 C0.32851562 9.54921875 0.03203125 10.3484375 -0.2734375 11.171875 C-0.51320313 11.77515625 -0.75296875 12.3784375 -1 13 C-1.66 13 -2.32 13 -3 13 C-2.52060632 8.28596212 -2.03165952 4.33420699 0 0 Z " fill="#2D180F" transform="translate(122,135)"/>
<path d="M0 0 C1.32 0.33 2.64 0.66 4 1 C2.85845641 2.83600745 1.71165684 4.66874805 0.5625 6.5 C-0.07558594 7.5209375 -0.71367188 8.541875 -1.37109375 9.59375 C-1.90863281 10.3878125 -2.44617188 11.181875 -3 12 C-3.33 12 -3.66 12 -4 12 C-4.1875 9.6875 -4.1875 9.6875 -4 7 C-2.5625 5.4375 -2.5625 5.4375 -1 4 C-0.28552357 1.89667109 -0.28552357 1.89667109 0 0 Z " fill="#071124" transform="translate(94,93)"/>
<path d="M0 0 C1.32 0 2.64 0 4 0 C4.33 1.98 4.66 3.96 5 6 C3.68 6 2.36 6 1 6 C0.67 4.02 0.34 2.04 0 0 Z " fill="#020304" transform="translate(109,45)"/>
<path d="M0 0 C4.51707932 0.5314211 7.38687577 2.29015683 11 5 C11.33 5.66 11.66 6.32 12 7 C10.68 7 9.36 7 8 7 C8 6.34 8 5.68 8 5 C6.8553125 4.5978125 6.8553125 4.5978125 5.6875 4.1875 C3.12619116 3.05575888 1.80307062 2.08776599 0 0 Z " fill="#080C18" transform="translate(101,38)"/>
<path d="M0 0 C0.99 0 1.98 0 3 0 C3 0.99 3 1.98 3 3 C2.34 3 1.68 3 1 3 C0.67 3.99 0.34 4.98 0 6 C-2.0625 6.6875 -2.0625 6.6875 -4 7 C-4 6.34 -4 5.68 -4 5 C-3.34 5 -2.68 5 -2 5 C-1.7834375 4.0409375 -1.7834375 4.0409375 -1.5625 3.0625 C-1 1 -1 1 0 0 Z " fill="#01020A" transform="translate(68,132)"/>
<path d="M0 0 C0.33 0.66 0.66 1.32 1 2 C-5.14285714 7.57142857 -5.14285714 7.57142857 -10 8 C-6.88983545 4.71211176 -3.98381075 2.16264012 0 0 Z " fill="#211610" transform="translate(44,48)"/>
<path d="M0 0 C0.66 0.33 1.32 0.66 2 1 C1.34 2.32 0.68 3.64 0 5 C-1.65 5 -3.3 5 -5 5 C-4.1875 3.0625 -4.1875 3.0625 -3 1 C-2.01 0.67 -1.02 0.34 0 0 Z " fill="#020207" transform="translate(193,44)"/>
<path d="M0 0 C0.33 0 0.66 0 1 0 C1 2.64 1 5.28 1 8 C1.66 8 2.32 8 3 8 C2.67 9.32 2.34 10.64 2 12 C0.68 11.67 -0.64 11.34 -2 11 C-1.34 7.37 -0.68 3.74 0 0 Z " fill="#02040F" transform="translate(14,101)"/>
<path d="M0 0 C-1.5625 2 -1.5625 2 -4 4 C-7.75 4.25 -7.75 4.25 -11 4 C-7.04396675 0.96704118 -5.03239385 -0.13243142 0 0 Z " fill="#18171D" transform="translate(211,33)"/>
<path d="M0 0 C0.99 0.33 1.98 0.66 3 1 C2.01 4.3 1.02 7.6 0 11 C-0.66 9.68 -1.32 8.36 -2 7 C-1.34 7 -0.68 7 0 7 C0 4.69 0 2.38 0 0 Z " fill="#0E182C" transform="translate(114,58)"/>
<path d="M0 0 C0.66 0 1.32 0 2 0 C0.68775452 3.93673644 -0.91910327 6.22719294 -4 9 C-4.33 8.01 -4.66 7.02 -5 6 C-4.34 6 -3.68 6 -3 6 C-2.690625 5.195625 -2.38125 4.39125 -2.0625 3.5625 C-1 1 -1 1 0 0 Z " fill="#081024" transform="translate(111,69)"/>
<path d="M0 0 C1.13757948 4.55031791 0.4283779 6.63084406 -1 11 C-1.66 10.67 -2.32 10.34 -3 10 C-2.01 6.7 -1.02 3.4 0 0 Z " fill="#B12B23" transform="translate(161,143)"/>
<path d="M0 0 C-0.33 1.65 -0.66 3.3 -1 5 C-1.66 5 -2.32 5 -3 5 C-3.33 5.66 -3.66 6.32 -4 7 C-4.33 5.35 -4.66 3.7 -5 2 C-2 0 -2 0 0 0 Z " fill="#B4161C" transform="translate(193,138)"/>
<path d="M0 0 C1 3 1 3 0.25 5.625 C-1 8 -1 8 -4 9 C-3.35455571 5.51460083 -1.89865603 2.97180943 0 0 Z " fill="#25150D" transform="translate(134,113)"/>
<path d="M0 0 C0.99 0.33 1.98 0.66 3 1 C1.02 3.31 -0.96 5.62 -3 8 C-3.66 7.34 -4.32 6.68 -5 6 C-3.35 4.02 -1.7 2.04 0 0 Z " fill="#0B1228" transform="translate(32,65)"/>
<path d="M0 0 C0.33 0 0.66 0 1 0 C1 1.65 1 3.3 1 5 C-0.32 5.33 -1.64 5.66 -3 6 C-3 6.66 -3 7.32 -3 8 C-3.66 7.67 -4.32 7.34 -5 7 C-4.19152271 5.83054208 -3.37810888 4.66449539 -2.5625 3.5 C-2.11003906 2.8503125 -1.65757812 2.200625 -1.19140625 1.53125 C-0.79824219 1.0259375 -0.40507812 0.520625 0 0 Z " fill="#AE2F25" transform="translate(168,128)"/>
<path d="M0 0 C0.33 1.32 0.66 2.64 1 4 C-0.32 4.99 -1.64 5.98 -3 7 C-3 3 -3 3 -1.5 1.25 C-1.005 0.8375 -0.51 0.425 0 0 Z " fill="#090910" transform="translate(50,109)"/>
<path d="M0 0 C0.66 0 1.32 0 2 0 C1.34 2.64 0.68 5.28 0 8 C-0.66 8 -1.32 8 -2 8 C-1.125 1.125 -1.125 1.125 0 0 Z " fill="#050B21" transform="translate(17,89)"/>
<path d="M0 0 C0.66 0.33 1.32 0.66 2 1 C1.67 3.31 1.34 5.62 1 8 C0.34 8 -0.32 8 -1 8 C-0.67 5.36 -0.34 2.72 0 0 Z " fill="#2D1C15" transform="translate(10,85)"/>
<path d="M0 0 C0 0.66 0 1.32 0 2 C-1.98 2.99 -3.96 3.98 -6 5 C-6.33 4.01 -6.66 3.02 -7 2 C-4.35261084 0.5393715 -3.10551666 0 0 0 Z " fill="#A32E33" transform="translate(199,155)"/>
<path d="M0 0 C1 3 1 3 -0.4375 6.1875 C-1.2109375 7.5796875 -1.2109375 7.5796875 -2 9 C-2.66 9 -3.32 9 -4 9 C-2.94124926 5.59687262 -1.99097846 2.98646769 0 0 Z " fill="#2B170E" transform="translate(64,133)"/>
<path d="M0 0 C0.99 0.33 1.98 0.66 3 1 C1.37660195 2.70884005 -0.29319053 4.37446717 -2 6 C-2.66 6 -3.32 6 -4 6 C-2.84826645 3.53199953 -1.95216435 1.95216435 0 0 Z " fill="#251C1D" transform="translate(42,128)"/>
<path d="M0 0 C0.66 0.33 1.32 0.66 2 1 C1.01 2.485 1.01 2.485 0 4 C0.66 4.66 1.32 5.32 2 6 C0.68 6.33 -0.64 6.66 -2 7 C-2.6875 5.1875 -2.6875 5.1875 -3 3 C-1.5625 1.25 -1.5625 1.25 0 0 Z " fill="#0C1421" transform="translate(83,113)"/>
</svg>
